<svg width="54" height="51" viewBox="0 0 54 51" fill="none" xmlns="http://www.w3.org/2000/svg">
<path d="M52.7286 25.5C52.7286 39.2939 41.2229 50.5 27 50.5C12.7771 50.5 1.27142 39.2939 1.27142 25.5C1.27142 11.7061 12.7771 0.5 27 0.5C41.2229 0.5 52.7286 11.7061 52.7286 25.5Z" fill="white" stroke="#DDDFE0"/>
<path d="M22.675 34.9714C31.4733 34.9714 36.2846 28.2448 36.2846 22.4119C36.2846 22.2209 36.2804 22.0306 36.2711 21.8413C37.205 21.2182 38.0168 20.4407 38.6571 19.5556C37.8001 19.9072 36.8777 20.1437 35.9102 20.2506C36.8978 19.704 37.656 18.8396 38.0136 17.809C37.0893 18.3146 36.0659 18.682 34.9762 18.8804C34.1034 18.0224 32.8606 17.4858 31.4845 17.4858C28.8431 17.4858 26.701 19.4627 26.701 21.8995C26.701 22.246 26.7429 22.5828 26.8249 22.906C22.8495 22.7213 19.3242 20.965 16.9652 18.2939C16.5545 18.9463 16.3176 19.7041 16.3176 20.5127C16.3176 22.0441 17.1621 23.3962 18.4462 24.187C17.6614 24.1647 16.9243 23.9659 16.2799 23.635C16.2792 23.6535 16.2792 23.6716 16.2792 23.6913C16.2792 25.8292 17.9279 27.6141 20.1168 28.0186C19.7148 28.1195 19.2918 28.1739 18.8555 28.1739C18.5478 28.1739 18.2479 28.1459 17.9563 28.0942C18.5654 29.8482 20.3313 31.1244 22.4249 31.1602C20.7877 32.3444 18.7253 33.0497 16.4839 33.0497C16.0983 33.0497 15.7173 33.0294 15.3428 32.9886C17.4597 34.2408 19.9736 34.9716 22.6752 34.9716" fill="black"/>
</svg>
