<svg width="51" height="51" viewBox="0 0 51 51" fill="none" xmlns="http://www.w3.org/2000/svg">
<circle cx="25.5" cy="25.5" r="25" fill="white" stroke="#DDDFE0"/>
<path d="M25.5044 19.1401C21.992 19.1401 19.1484 21.9868 19.1484 25.4961C19.1484 29.0084 21.9951 31.852 25.5044 31.852C29.0168 31.852 31.8603 29.0054 31.8603 25.4961C31.8603 21.9837 29.0137 19.1401 25.5044 19.1401ZM25.5044 29.6215C23.2244 29.6215 21.3789 27.775 21.3789 25.4961C21.3789 23.2171 23.2254 21.3706 25.5044 21.3706C27.7833 21.3706 29.6298 23.2171 29.6298 25.4961C29.6309 27.775 27.7844 29.6215 25.5044 29.6215Z" fill="black"/>
<path d="M30.6065 13.194C28.3275 13.0877 22.6828 13.0929 20.4017 13.194C18.3973 13.2879 16.6292 13.772 15.2038 15.1974C12.8217 17.5796 13.1261 20.7896 13.1261 25.4972C13.1261 30.3152 12.8578 33.4509 15.2038 35.7969C17.5953 38.1874 20.8517 37.8746 25.5036 37.8746C30.2762 37.8746 31.9235 37.8777 33.6111 37.2244C35.9055 36.3336 37.6375 34.2828 37.8067 30.599C37.9141 28.319 37.9079 22.6753 37.8067 20.3943C37.6024 16.0458 35.2687 13.4087 30.6065 13.194ZM34.2139 34.2208C32.6522 35.7825 30.4858 35.6431 25.4737 35.6431C20.313 35.6431 18.2435 35.7195 16.7335 34.2054C14.9943 32.4745 15.3091 29.6949 15.3091 25.4807C15.3091 19.7781 14.7239 15.6712 20.4471 15.378C21.7621 15.3316 22.1491 15.3161 25.4592 15.3161L25.5057 15.3471C31.006 15.3471 35.3213 14.7711 35.5804 20.4933C35.6392 21.799 35.6527 22.1912 35.6527 25.4961C35.6516 30.597 35.7487 32.6788 34.2139 34.2208Z" fill="black"/>
<path d="M32.1116 20.3743C32.9319 20.3743 33.5968 19.7093 33.5968 18.8891C33.5968 18.0688 32.9319 17.4038 32.1116 17.4038C31.2913 17.4038 30.6263 18.0688 30.6263 18.8891C30.6263 19.7093 31.2913 20.3743 32.1116 20.3743Z" fill="black"/>
</svg>
