<svg width="51" height="51" viewBox="0 0 51 51" fill="none" xmlns="http://www.w3.org/2000/svg">
<path d="M50.5 25.5C50.5 39.3071 39.3071 50.5 25.5 50.5C11.6929 50.5 0.5 39.3071 0.5 25.5C0.5 11.6929 11.6929 0.5 25.5 0.5C39.3071 0.5 50.5 11.6929 50.5 25.5Z" fill="white" stroke="#DDDFE0"/>
<path d="M28.7351 17.2273H31.2476V13.2887C30.8142 13.235 29.3234 13.1143 27.5873 13.1143C23.9647 13.1143 21.4832 15.1651 21.4832 18.9345V22.4035H17.4857V26.8067H21.4832V37.8857H26.3843V26.8077H30.2202L30.8291 22.4046H26.3832V19.3711C26.3843 18.0985 26.7651 17.2273 28.7351 17.2273Z" fill="black"/>
</svg>
