<svg width="165" height="34" viewBox="0 0 165 34" fill="none" xmlns="http://www.w3.org/2000/svg">
<g clip-path="url(#clip0)">
<path d="M43.1593 10.8361C43.2618 10.9356 43.2618 11.3332 43.2618 11.9297C43.2618 12.5262 43.2618 12.9239 43.1593 13.1227C42.0316 13.918 40.5964 14.2162 38.9561 14.2162C36.7007 14.2162 34.958 13.6198 33.6253 12.2279C32.2926 10.9356 31.5749 9.34489 31.5749 7.45603C31.5749 5.56715 32.2926 3.9765 33.6253 2.68411C34.958 1.39171 36.8033 0.695801 38.9561 0.695801C40.5964 0.695801 42.0316 1.09346 43.1593 1.78936C43.2618 1.9882 43.2618 2.38586 43.2618 2.98235C43.2618 3.57884 43.2618 3.9765 43.1593 4.07591C41.8265 3.2806 40.3913 2.78352 39.1611 2.78352C37.8284 2.78352 36.5982 3.18118 35.6756 4.07591C34.753 4.97065 34.3429 6.06422 34.3429 7.35662C34.3429 8.649 34.8555 9.84198 35.6756 10.7368C36.5982 11.6315 37.7259 12.0291 39.1611 12.0291C40.3913 12.1286 41.8265 11.6315 43.1593 10.8361Z" fill="black"/>
<path d="M57.5115 2.68411C58.8443 3.9765 59.4594 5.56715 59.4594 7.45603C59.4594 9.34489 58.8443 10.9356 57.5115 12.2279C56.1788 13.5203 54.5386 14.2162 52.3857 14.2162C50.3354 14.2162 48.6951 13.5203 47.3625 12.2279C46.0298 10.9356 45.4147 9.34489 45.4147 7.45603C45.4147 5.56715 46.0298 3.9765 47.3625 2.68411C48.6951 1.39171 50.3354 0.695801 52.3857 0.695801C54.5386 0.695801 56.1788 1.39171 57.5115 2.68411ZM49.4128 4.17533C48.5927 5.07007 48.1826 6.16363 48.1826 7.45603C48.1826 8.74845 48.5927 9.94142 49.4128 10.8361C50.2329 11.7309 51.258 12.1286 52.4883 12.1286C53.7185 12.1286 54.7436 11.7309 55.5637 10.8361C56.3839 9.94142 56.794 8.84781 56.794 7.45603C56.794 6.06422 56.3839 4.97065 55.5637 4.17533C54.7436 3.38001 53.7185 2.88293 52.4883 2.88293C51.258 2.88293 50.2329 3.2806 49.4128 4.17533Z" fill="black"/>
<path d="M78.2198 13.918C77.3996 14.1168 76.477 14.1168 75.6569 13.918L73.7091 5.56709L70.6336 13.918C69.916 14.0174 69.1984 14.0174 68.4808 13.918L65.4052 5.56709L63.4575 13.918C62.6374 14.1168 61.7147 14.1168 60.8946 13.918L64.0726 0.993996C64.7902 0.89458 65.6103 0.89458 66.328 0.993996L69.6084 9.84199L72.7864 0.993996C73.5041 0.89458 74.3242 0.89458 75.0418 0.993996L78.2198 13.918Z" fill="black"/>
<path d="M85.9086 0.994141C87.4464 0.994141 88.574 1.3918 89.4971 2.18712C90.4193 2.98244 90.8292 3.9766 90.8292 5.26899C90.8292 6.56139 90.4193 7.55554 89.4971 8.35087C88.574 9.14616 87.3439 9.54387 85.9086 9.54387H83.5507V13.9181C82.6281 14.117 81.808 14.117 80.8854 13.9181V0.994141H85.9086ZM85.9086 7.45613C86.6262 7.45613 87.1388 7.2573 87.5487 6.85963C87.9586 6.46197 88.164 5.9649 88.164 5.26899C88.164 4.57308 87.9586 4.07601 87.5487 3.67835C87.1388 3.28068 86.6262 3.08186 85.9086 3.08186H83.5507V7.35671C83.5507 7.45613 85.9086 7.45613 85.9086 7.45613Z" fill="black"/>
<path d="M102.618 11.8306C102.824 12.5265 102.824 13.2224 102.618 14.0177H93.9052V0.994338C94.8273 0.795507 95.6473 0.795507 96.5703 0.994338V11.7312H102.618V11.8306Z" fill="black"/>
<path d="M118.099 13.918C117.176 14.1168 116.254 14.1168 115.331 13.918L114.203 11.035H108.872L107.744 13.918C106.822 14.1168 105.899 14.1168 104.977 13.918L110.41 0.993996C111.128 0.89458 111.845 0.89458 112.665 0.993996L118.099 13.918ZM113.383 8.94719L111.538 4.37411L109.693 8.94719H113.383Z" fill="black"/>
<path d="M123.429 13.9183C122.507 14.1172 121.687 14.1172 120.764 13.9183V0.994338C121.687 0.795507 122.507 0.795507 123.429 0.994338V13.9183Z" fill="black"/>
<path d="M139.114 13.9183C138.397 14.0177 137.679 14.0177 137.064 13.9183L130.093 5.36861V13.9183C129.17 14.1172 128.35 14.1172 127.427 13.9183V0.994338C128.145 0.894922 128.863 0.894922 129.478 0.994338L136.449 9.54408V0.994338C137.371 0.795507 138.192 0.795507 139.114 0.994338V13.9183Z" fill="black"/>
<path d="M152.646 0.994141C152.749 1.69004 152.749 2.38595 152.646 3.18128H148.751V13.9181C147.828 14.117 147.008 14.117 146.085 13.9181V3.18128H142.19C142.087 2.48536 142.087 1.78946 142.19 0.994141H152.646Z" fill="black"/>
<path d="M163.308 1.78947C163.411 1.9883 163.411 2.38596 163.411 3.08187C163.411 3.77777 163.411 4.17543 163.308 4.27485C161.873 3.38012 160.643 2.88303 159.618 2.88303C159.003 2.88303 158.49 2.98245 158.182 3.2807C157.875 3.57894 157.67 3.9766 157.67 4.37427C157.67 4.87134 157.875 5.16959 158.285 5.46783C158.695 5.76607 159.413 5.96491 160.437 6.26315C160.951 6.46199 161.463 6.5614 161.873 6.76023C162.283 6.95906 162.694 7.15789 163.103 7.45614C163.513 7.75438 163.821 8.15204 164.026 8.54972C164.231 9.0468 164.333 9.54388 164.333 10.1403C164.333 11.4328 163.923 12.3275 163 13.0234C162.078 13.7193 160.951 14.0175 159.618 14.0175C158.08 14.0175 156.747 13.6199 155.517 12.924C155.415 12.7252 155.415 12.3275 155.415 11.6316C155.415 10.9357 155.415 10.538 155.517 10.4386C156.952 11.3333 158.285 11.8304 159.515 11.8304C160.233 11.8304 160.745 11.731 161.155 11.4328C161.566 11.1345 161.77 10.7369 161.77 10.2398C161.77 9.7427 161.566 9.34498 161.155 9.14617C160.745 8.94735 160.027 8.64909 158.9 8.25146C158.388 8.05262 157.875 7.85379 157.568 7.75438C157.157 7.55555 156.747 7.35672 156.44 7.05847C156.132 6.76022 155.722 6.36257 155.517 5.96491C155.312 5.56725 155.209 5.07017 155.209 4.47368C155.209 3.38012 155.619 2.38596 156.44 1.69005C157.26 0.994148 158.388 0.49707 159.823 0.49707C160.951 0.695901 162.18 1.09356 163.308 1.78947Z" fill="black"/>
<path d="M38.8537 17.8945C40.0839 17.8945 41.1091 18.1928 41.9292 18.7893C42.7493 19.3858 43.1594 20.1811 43.1594 21.1753C43.1594 22.5671 42.5443 23.4619 41.3141 24.0583C42.0317 24.3566 42.5443 24.7542 42.9544 25.2513C43.3644 25.7484 43.5694 26.4443 43.5694 27.1402C43.5694 28.2338 43.1594 29.1285 42.3393 29.8244C41.5191 30.4209 40.3914 30.8185 39.0587 30.8185H33.4203V17.8945H38.8537ZM35.9833 23.3624H38.6487C39.1613 23.3624 39.6738 23.263 39.9814 22.9648C40.289 22.6665 40.4939 22.2688 40.4939 21.7717C40.4939 21.2747 40.289 20.7776 39.9814 20.5787C39.6738 20.2806 39.1613 20.1811 38.6487 20.1811H35.9833C35.9833 20.0817 35.9833 23.3624 35.9833 23.3624ZM35.9833 28.7308H38.7512C39.3662 28.7308 39.8788 28.532 40.289 28.2338C40.699 27.9355 40.8015 27.4384 40.8015 26.9413C40.8015 26.4443 40.5965 25.9472 40.289 25.6489C39.9814 25.3507 39.4688 25.1519 38.7512 25.1519H35.9833V28.7308Z" fill="black"/>
<path d="M57.8192 19.5849C59.1519 20.8773 59.767 22.4679 59.767 24.3569C59.767 26.2458 59.1519 27.8364 57.8192 29.1288C56.4865 30.4212 54.8462 31.1171 52.6934 31.1171C50.6431 31.1171 49.0028 30.4212 47.6701 29.1288C46.3374 27.8364 45.7223 26.2458 45.7223 24.3569C45.7223 22.4679 46.3374 20.8773 47.6701 19.5849C49.0028 18.2926 50.6431 17.5967 52.6934 17.5967C54.8462 17.5967 56.4865 18.2926 57.8192 19.5849ZM49.618 21.0762C48.7978 21.9709 48.3877 23.0645 48.3877 24.4563C48.3877 25.8481 48.7978 26.9417 49.618 27.8364C50.438 28.7312 51.4632 29.1288 52.6934 29.1288C53.9236 29.1288 54.9487 28.7312 55.7689 27.8364C56.589 26.9417 56.9991 25.8481 56.9991 24.4563C56.9991 23.0645 56.589 21.9709 55.7689 21.0762C54.9487 20.1814 53.9236 19.7837 52.6934 19.7837C51.4632 19.7837 50.438 20.1814 49.618 21.0762Z" fill="black"/>
<path d="M73.6065 30.8189C72.6839 31.0177 71.7613 31.0177 70.8387 30.8189L69.711 27.9359H64.3801L63.15 30.8189C62.2273 31.0177 61.3046 31.0177 60.382 30.8189L65.8153 17.8949C66.533 17.7955 67.2506 17.7955 68.0707 17.8949L73.6065 30.8189ZM68.7883 25.8481L66.943 21.275L65.0978 25.8481H68.7883Z" fill="black"/>
<path d="M80.9879 17.8945C82.5256 17.8945 83.6532 18.2922 84.576 19.0876C85.4986 19.8829 85.9086 20.877 85.9086 22.1694C85.9086 23.0641 85.7036 23.8595 85.191 24.5554C84.6784 25.2513 83.9608 25.7484 83.1407 26.0466L86.5237 30.918C85.6011 31.1168 84.576 31.1168 83.6532 30.918L80.4753 26.4443H78.5274V30.8185C77.6048 31.0173 76.7847 31.0173 75.8621 30.8185V17.8945H80.9879ZM78.425 24.1578H80.9879C81.7055 24.1578 82.218 23.9589 82.6281 23.6607C83.0382 23.263 83.2432 22.7659 83.2432 22.1694C83.2432 21.5729 83.0382 21.0758 82.6281 20.6782C82.218 20.2806 81.7055 20.0817 80.9879 20.0817H78.425V24.1578Z" fill="black"/>
<path d="M94.1097 17.8945C96.2626 17.8945 98.0056 18.4911 99.2355 19.684C100.466 20.877 101.183 22.4677 101.183 24.3566C101.183 26.2454 100.568 27.7367 99.2355 29.0291C97.9033 30.3214 96.2626 30.8185 94.1097 30.8185H89.2916V17.8945H94.1097ZM94.1097 28.7308C95.4427 28.7308 96.468 28.3331 97.288 27.5379C98.1079 26.7425 98.5178 25.7484 98.5178 24.3566C98.5178 22.9648 98.1079 21.9706 97.288 21.1753C96.468 20.3799 95.4427 19.9823 94.1097 19.9823H91.9567V28.6314H94.1097V28.7308Z" fill="black"/>
<path d="M107.437 21.0766H106.207V23.1642H105.079V17.7959H107.437C108.155 17.7959 108.769 17.8953 109.179 18.1935C109.589 18.4918 109.795 18.8894 109.795 19.3865C109.795 19.7841 109.692 20.0824 109.487 20.2812C109.283 20.5795 108.975 20.6789 108.565 20.8777L110 23.1642H108.769L107.437 21.0766ZM106.207 20.3807H107.334C107.744 20.3807 108.052 20.2812 108.257 20.1819C108.462 20.0824 108.565 19.7841 108.565 19.486C108.565 19.1877 108.462 18.9889 108.257 18.79C108.052 18.5912 107.744 18.5912 107.334 18.4918H106.104L106.207 20.3807Z" fill="black"/>
<path d="M115.946 20.7776H113.281V22.4676H116.458V23.263H112.152V17.8945H116.458V18.6899H113.383V20.1811H116.048V20.7776H115.946Z" fill="black"/>
<path d="M122.097 21.7725C122.097 21.5736 121.994 21.3748 121.789 21.2754C121.584 21.176 121.174 20.9771 120.662 20.8777C120.149 20.7783 119.739 20.5795 119.431 20.4801C118.816 20.1819 118.509 19.7841 118.509 19.2871C118.509 18.8894 118.713 18.4918 119.124 18.1935C119.534 17.8953 120.149 17.7959 120.764 17.7959C121.174 17.7959 121.584 17.8953 121.994 17.9947C122.404 18.0941 122.609 18.293 122.815 18.5912C123.019 18.8894 123.121 19.0882 123.121 19.486H121.994C121.994 19.1877 121.892 18.9889 121.687 18.79C121.482 18.5912 121.174 18.5912 120.764 18.5912C120.354 18.5912 120.046 18.6906 119.944 18.79C119.739 18.8894 119.636 19.0882 119.636 19.2871C119.636 19.486 119.739 19.6848 119.944 19.7841C120.149 19.8836 120.559 20.0824 121.072 20.1819C121.584 20.2812 121.994 20.4801 122.302 20.5795C122.609 20.7783 122.815 20.8777 123.019 21.0766C123.225 21.2754 123.225 21.5736 123.225 21.7725C123.225 22.2695 123.019 22.5678 122.609 22.8661C122.199 23.1643 121.584 23.2637 120.866 23.2637C120.354 23.2637 119.944 23.1643 119.534 23.0649C119.124 22.9654 118.816 22.6672 118.611 22.4684C118.407 22.1702 118.303 21.8719 118.303 21.5736H119.431C119.431 21.8719 119.534 22.0707 119.842 22.2695C120.149 22.4684 120.456 22.5678 120.866 22.5678C121.276 22.5678 121.584 22.4684 121.789 22.369C121.994 22.1702 122.097 21.9713 122.097 21.7725Z" fill="black"/>
<path d="M130.708 20.5788C130.708 21.0759 130.606 21.573 130.4 21.9706C130.196 22.3683 129.888 22.6665 129.478 22.8654C129.068 23.0642 128.555 23.1636 128.043 23.1636C127.53 23.1636 127.017 23.0642 126.607 22.8654C126.198 22.6665 125.89 22.3683 125.684 21.9706C125.48 21.573 125.378 21.0759 125.378 20.5788V20.2806C125.378 19.7835 125.48 19.2864 125.684 18.8888C125.89 18.4911 126.198 18.1929 126.607 17.9941C127.017 17.7952 127.53 17.6958 128.043 17.6958C128.555 17.6958 129.068 17.7952 129.478 17.9941C129.888 18.1929 130.196 18.4911 130.4 18.8888C130.606 19.2864 130.708 19.7835 130.708 20.2806V20.5788ZM129.58 20.2806C129.58 19.6841 129.478 19.187 129.17 18.8888C128.863 18.5905 128.453 18.3917 128.043 18.3917C127.53 18.3917 127.12 18.5905 126.915 18.8888C126.71 19.187 126.505 19.6841 126.505 20.2806V20.5788C126.505 21.1754 126.607 21.6724 126.915 21.9706C127.223 22.2689 127.633 22.4677 128.043 22.4677C128.453 22.4677 128.965 22.2689 129.17 21.9706C129.478 21.6724 129.58 21.1754 129.58 20.5788V20.2806Z" fill="black"/>
<path d="M134.296 22.4676H137.269V23.263H133.169V17.8945H134.296V22.4676Z" fill="black"/>
<path d="M141.165 21.9706L142.805 17.6958H144.036L141.677 23.0642H140.55L138.192 17.6958H139.422L141.165 21.9706Z" fill="black"/>
<path d="M147.316 23.1642H146.188V17.7959H147.316V23.1642Z" fill="black"/>
<path d="M155.209 23.1642H154.082L151.109 19.2871V23.1642H149.981V17.7959H151.109L154.082 21.6731V17.7959H155.209V23.1642Z" fill="black"/>
<path d="M162.898 22.4677C162.693 22.766 162.283 22.9648 161.873 23.0642C161.463 23.1636 160.951 23.263 160.437 23.263C159.925 23.263 159.413 23.1636 159.002 22.9648C158.592 22.766 158.284 22.4677 157.978 22.0701C157.772 21.6724 157.67 21.2747 157.568 20.6783V20.2806C157.568 19.4853 157.772 18.7893 158.284 18.3917C158.798 17.8946 159.413 17.6958 160.233 17.6958C160.951 17.6958 161.565 17.7952 161.976 18.1929C162.386 18.4911 162.693 18.8888 162.796 19.4853H161.668C161.565 18.8888 161.053 18.4911 160.335 18.4911C159.823 18.4911 159.413 18.5905 159.208 18.9882C159.002 19.3859 158.798 19.7835 158.798 20.2806V20.6783C158.798 21.2747 158.9 21.6724 159.208 22.0701C159.515 22.3683 159.925 22.5672 160.437 22.5672C161.053 22.5672 161.463 22.4677 161.668 22.2689V21.1754H160.335V20.4794H162.796V22.4677H162.898Z" fill="black"/>
<path d="M108.36 29.7252C108.36 29.5263 108.257 29.3275 108.052 29.2281C107.847 29.1286 107.437 28.9298 106.924 28.8304C106.412 28.731 106.002 28.5322 105.694 28.4327C105.079 28.1345 104.771 27.7369 104.771 27.2398C104.771 26.8421 104.977 26.4444 105.387 26.1462C105.797 25.848 106.412 25.7485 107.026 25.7485C107.437 25.7485 107.847 25.848 108.257 25.9474C108.667 26.0468 108.872 26.2456 109.077 26.5439C109.283 26.8421 109.385 27.041 109.385 27.4386H108.257C108.257 27.1403 108.155 26.9415 107.95 26.7427C107.744 26.5439 107.437 26.5439 107.026 26.5439C106.617 26.5439 106.309 26.6432 106.207 26.7427C106.002 26.8421 105.899 27.041 105.899 27.2398C105.899 27.4386 106.002 27.6374 106.207 27.7369C106.412 27.8362 106.822 28.0351 107.334 28.1345C107.847 28.2339 108.257 28.4327 108.565 28.5322C108.872 28.731 109.077 28.8304 109.283 29.0293C109.487 29.2281 109.487 29.5263 109.487 29.7252C109.487 30.2223 109.283 30.5204 108.872 30.8187C108.462 31.117 107.847 31.2164 107.13 31.2164C106.617 31.2164 106.207 31.117 105.797 31.0175C105.387 30.9181 105.079 30.7193 104.874 30.4211C104.669 30.1228 104.567 29.8245 104.567 29.5263H105.694C105.694 29.8245 105.797 30.0234 106.104 30.2223C106.309 30.4211 106.72 30.5204 107.13 30.5204C107.54 30.5204 107.847 30.4211 108.052 30.3216C108.257 30.1228 108.36 29.924 108.36 29.7252Z" fill="black"/>
<path d="M112.768 31.117H111.64V25.7485H112.768V31.117Z" fill="black"/>
<path d="M120.662 31.117H119.534L116.664 27.2398V31.117H115.536V25.7485H116.664L119.636 29.6257V25.7485H120.764V31.117H120.662Z" fill="black"/>
<path d="M128.35 29.3273C128.247 29.9237 128.043 30.3215 127.53 30.7191C127.017 31.1167 126.505 31.2162 125.684 31.2162C125.172 31.2162 124.66 31.1167 124.352 30.9179C123.942 30.7191 123.635 30.4208 123.429 30.0232C123.225 29.6256 123.122 29.2279 123.122 28.7308V28.2337C123.122 27.7366 123.225 27.2395 123.429 26.8419C123.635 26.4443 123.942 26.146 124.352 25.9472C124.762 25.7484 125.274 25.6489 125.788 25.6489C126.505 25.6489 127.12 25.8477 127.53 26.146C127.941 26.4443 128.247 26.9413 128.35 27.5378H127.12C127.017 27.1402 126.915 26.8419 126.71 26.6431C126.505 26.4443 126.198 26.3448 125.788 26.3448C125.274 26.3448 124.967 26.4443 124.66 26.8419C124.352 27.1402 124.249 27.5378 124.249 28.1343V28.6314C124.249 29.2279 124.352 29.6256 124.66 29.9237C124.967 30.222 125.274 30.4208 125.788 30.4208C126.198 30.4208 126.607 30.3215 126.812 30.1226C127.017 29.9237 127.223 29.7249 127.223 29.3273H128.35Z" fill="black"/>
<path d="M134.398 28.7313H131.733V30.4213H134.912V31.2166H130.606V25.8481H134.912V26.6435H131.836V28.1347H134.502L134.398 28.7313Z" fill="black"/>
<path d="M143.83 31.117H139.422V30.5204L141.575 28.5322C141.883 28.2339 142.087 28.0351 142.293 27.8362C142.395 27.6374 142.497 27.4386 142.497 27.2398C142.497 26.9415 142.395 26.7427 142.189 26.6432C141.985 26.5439 141.779 26.4444 141.473 26.4444C141.062 26.4444 140.857 26.5439 140.652 26.7427C140.447 26.9415 140.344 27.1403 140.344 27.4386H139.217C139.217 27.1403 139.32 26.8421 139.524 26.5439C139.73 26.2456 139.934 26.0468 140.344 25.9474C140.652 25.848 141.062 25.7485 141.473 25.7485C142.087 25.7485 142.6 25.848 143.01 26.1462C143.42 26.4444 143.522 26.7427 143.522 27.2398C143.522 27.538 143.42 27.8362 143.215 28.1345C143.01 28.4328 142.703 28.731 142.293 29.1286L140.652 30.5204H143.728V31.117H143.83Z" fill="black"/>
<path d="M150.084 28.8302C150.084 29.6256 149.879 30.222 149.571 30.6197C149.264 31.0174 148.648 31.2162 147.931 31.2162C147.213 31.2162 146.701 31.0174 146.291 30.6197C145.881 30.222 145.778 29.6256 145.778 28.9296V28.0349C145.778 27.2395 145.983 26.6431 146.291 26.2455C146.598 25.8477 147.213 25.6489 147.931 25.6489C148.648 25.6489 149.161 25.8477 149.571 26.2455C149.879 26.6431 150.084 27.2395 150.084 27.9355V28.8302ZM148.956 27.8361C148.956 27.339 148.854 26.9414 148.648 26.7425C148.444 26.5436 148.238 26.3448 147.828 26.3448C147.418 26.3448 147.213 26.4443 147.008 26.6431C146.803 26.8419 146.701 27.2395 146.701 27.7366V28.9296C146.701 29.4267 146.803 29.8244 147.008 30.0232C147.213 30.222 147.418 30.4208 147.828 30.4208C148.136 30.4208 148.444 30.3215 148.648 30.1226C148.854 29.9237 148.956 29.5261 148.956 29.029V27.8361Z" fill="black"/>
<path d="M156.439 28.8302C156.439 29.6256 156.235 30.222 155.927 30.6197C155.619 31.0174 155.005 31.2162 154.287 31.2162C153.57 31.2162 153.056 31.0174 152.647 30.6197C152.237 30.222 152.134 29.6256 152.134 28.9296V28.0349C152.134 27.2395 152.339 26.6431 152.647 26.2455C152.954 25.8477 153.57 25.6489 154.287 25.6489C155.005 25.6489 155.517 25.8477 155.927 26.2455C156.235 26.6431 156.439 27.2395 156.439 27.9355V28.8302ZM155.312 27.8361C155.312 27.339 155.209 26.9414 155.005 26.7425C154.799 26.5436 154.594 26.3448 154.184 26.3448C153.774 26.3448 153.57 26.4443 153.364 26.6431C153.16 26.8419 153.056 27.2395 153.056 27.7366V28.9296C153.056 29.4267 153.16 29.8244 153.364 30.0232C153.57 30.222 153.774 30.4208 154.184 30.4208C154.492 30.4208 154.799 30.3215 155.005 30.1226C155.209 29.9237 155.312 29.5261 155.312 29.029V27.8361Z" fill="black"/>
<path d="M162.18 29.2281H163V29.924H162.18V31.117H161.053V29.924H158.182V29.4269L161.053 25.7485H162.18V29.2281ZM159.413 29.2281H161.155V26.9415L161.053 27.041L159.413 29.2281Z" fill="black"/>
<path d="M13.3271 0C4.20316 0 0 2.5848 0 2.5848V22.9649C0 30.8187 13.3271 34 13.3271 34C13.3271 34 26.6542 30.9182 26.6542 22.9649V2.5848C26.6542 2.5848 22.3485 0 13.3271 0ZM24.1938 22.269C24.1938 28.8304 13.3271 31.6141 13.3271 31.6141C13.3271 31.6141 2.46038 28.8304 2.46038 22.269V4.67252C2.46038 4.67252 6.25349 2.28655 13.3271 2.28655C20.4007 2.28655 24.1938 4.67252 24.1938 4.67252V22.269Z" fill="black"/>
<path d="M13.3272 16.4033C13.3272 16.4033 13.3272 28.1343 13.3272 29.3272C16.8127 29.3272 22.9637 25.2512 22.9637 21.7717V16.4033H13.3272Z" fill="black"/>
<path d="M3.58815 6.36253V16.5029H13.3272V3.97656C7.38124 3.97656 3.58815 6.36253 3.58815 6.36253Z" fill="black"/>
</g>
<defs>
<clipPath id="clip0">
<rect width="164.333" height="34" fill="white"/>
</clipPath>
</defs>
</svg>
